<?xml version="1.0" encoding="iso-8859-1"?>
<!-- Generator: Adobe Illustrator 19.0.0, SVG Export Plug-In . SVG Version: 6.00 Build 0)  -->
<svg version="1.1" id="Capa_1" xmlns="http://www.w3.org/2000/svg" xmlns:xlink="http://www.w3.org/1999/xlink" x="0px" y="0px"
	 viewBox="0 0 330.949 330.949" style="enable-background:new 0 0 330.949 330.949;" xml:space="preserve">
<g transform="translate(1 1)">
	<g>
		<polygon style="fill:#FFE100;" points="280.321,15.528 225.155,37.594 109.309,37.594 48.628,15.528 109.309,4.495 225.155,4.495 
					"/>
		<polygon style="fill:#FFE100;" points="247.222,114.825 81.727,114.825 109.309,37.594 225.155,37.594 		"/>
	</g>
	<polygon style="fill:#FDCC00;" points="4.495,98.276 81.727,114.825 109.309,37.594 48.628,15.528 	"/>
	<polygon style="fill:#FFE100;" points="280.321,15.528 225.155,37.594 247.222,114.825 81.727,114.825 109.309,37.594 
		48.628,15.528 4.495,98.276 164.474,324.452 324.452,98.276 	"/>
	<polygon style="fill:#FFA800;" points="280.321,15.528 266.678,20.984 307.903,98.276 156.199,312.751 164.474,324.452 
		324.452,98.276 	"/>
	<polygon style="fill:#FFFFFF;" points="48.628,15.528 62.27,20.984 21.045,98.276 172.749,312.751 164.474,324.452 4.495,98.276 	
		"/>
	<path d="M247.234,120.32c-0.005,0-0.01,0-0.013,0H81.726c-1.787,0-3.462-0.869-4.492-2.33c-1.029-1.461-1.284-3.331-0.683-5.013
		l27.583-77.231c0.781-2.187,2.853-3.647,5.175-3.647h115.846c2.453,0,4.609,1.627,5.284,3.985l21.96,76.858
		c0.214,0.587,0.33,1.221,0.33,1.882C252.729,117.86,250.27,120.32,247.234,120.32z M89.524,109.33h150.413l-18.926-66.241H113.182
		L89.524,109.33z"/>
	<path d="M247.218,120.321c-2.405,0-4.594-1.587-5.28-3.987l-22.066-77.231c-0.774-2.709,0.626-5.565,3.243-6.611l55.165-22.066
		c2.601-1.04,5.57,0.043,6.889,2.516l44.132,82.747c0.812,1.522,0.862,3.336,0.135,4.901s-2.146,2.696-3.832,3.058l-77.231,16.549
		C247.986,120.281,247.599,120.321,247.218,120.321z M231.801,40.854l19.292,67.521l65.081-13.946L277.79,22.459L231.801,40.854z"/>
	<path id="SVGCleanerId_0" d="M81.73,120.32c-0.381,0-0.768-0.04-1.155-0.122L3.344,103.648c-1.687-0.361-3.106-1.494-3.832-3.058
		c-0.727-1.564-0.676-3.379,0.135-4.901l44.132-82.747c1.288-2.414,4.155-3.513,6.726-2.578l60.682,22.066
		c2.841,1.033,4.313,4.166,3.297,7.012l-27.583,77.231C86.108,118.895,84.009,120.32,81.73,120.32z M12.774,94.43l65.396,14.013
		l24.126-67.552L51.232,22.322L12.774,94.43z"/>
	<path d="M225.155,43.089H109.309c-0.641,0-1.276-0.112-1.878-0.331L46.75,20.692c-2.332-0.848-3.807-3.155-3.598-5.628
		c0.209-2.473,2.051-4.499,4.492-4.943l60.682-11.033C108.65-0.97,108.98-1,109.309-1h115.846c0.362,0,0.723,0.036,1.078,0.107
		l55.165,11.033c2.384,0.477,4.172,2.464,4.395,4.886c0.222,2.422-1.173,4.701-3.431,5.604l-55.165,22.066
		C226.546,42.956,225.854,43.089,225.155,43.089z M110.277,32.099h113.82l37.02-14.808L224.611,9.99H109.805l-40.219,7.313
		L110.277,32.099z"/>
	<g>
		<path id="SVGCleanerId_0_1_" d="M81.73,120.32c-0.381,0-0.768-0.04-1.155-0.122L3.344,103.648
			c-1.687-0.361-3.106-1.494-3.832-3.058c-0.727-1.564-0.676-3.379,0.135-4.901l44.132-82.747c1.288-2.414,4.155-3.513,6.726-2.578
			l60.682,22.066c2.841,1.033,4.313,4.166,3.297,7.012l-27.583,77.231C86.108,118.895,84.009,120.32,81.73,120.32z M12.774,94.43
			l65.396,14.013l24.126-67.552L51.232,22.322L12.774,94.43z"/>
	</g>
	<path d="M164.474,329.947c-1.784,0-3.456-0.866-4.486-2.322L0.01,101.449c-1.307-1.848-1.347-4.309-0.101-6.199
		c1.247-1.89,3.525-2.82,5.738-2.347l76.662,16.427h164.331l76.662-16.427c2.214-0.473,4.492,0.458,5.739,2.347
		c1.246,1.89,1.206,4.35-0.101,6.199L168.96,327.625C167.93,329.082,166.258,329.947,164.474,329.947z M17.114,106.599
		l147.36,208.337l147.36-208.337l-63.461,13.599c-0.379,0.081-0.765,0.122-1.151,0.122H81.727c-0.387,0-0.773-0.041-1.151-0.122
		L17.114,106.599z"/>
	<path d="M164.475,329.949c-2.19,0-4.26-1.318-5.113-3.479L76.615,116.843c-1.115-2.823,0.271-6.015,3.093-7.129
		c2.824-1.115,6.015,0.271,7.129,3.093l82.747,209.627c1.115,2.823-0.271,6.015-3.093,7.129
		C165.829,329.824,165.146,329.949,164.475,329.949z"/>
	<path d="M164.472,329.949c-0.671,0-1.354-0.123-2.016-0.385c-2.822-1.115-4.208-4.305-3.093-7.129l82.747-209.627
		c1.115-2.823,4.307-4.207,7.129-3.093c2.822,1.115,4.208,4.306,3.093,7.129L169.584,326.47
		C168.732,328.63,166.662,329.949,164.472,329.949z"/>
</g>
<g>
</g>
<g>
</g>
<g>
</g>
<g>
</g>
<g>
</g>
<g>
</g>
<g>
</g>
<g>
</g>
<g>
</g>
<g>
</g>
<g>
</g>
<g>
</g>
<g>
</g>
<g>
</g>
<g>
</g>
</svg>
